<?xml version="1.0" encoding="utf-8"?>
<!-- Generator: Adobe Illustrator 16.0.0, SVG Export Plug-In . SVG Version: 6.00 Build 0)  -->
<!DOCTYPE svg PUBLIC "-//W3C//DTD SVG 1.1//EN" "http://www.w3.org/Graphics/SVG/1.1/DTD/svg11.dtd">
<svg version="1.1" id="Layer_1" xmlns="http://www.w3.org/2000/svg" xmlns:xlink="http://www.w3.org/1999/xlink" x="0px" y="0px"
	 width="117px" height="72px" viewBox="0 -19 117 72" enable-background="new 0 -19 117 72" xml:space="preserve">
<title>Colored Logos/logo-color-voyage</title>
<desc>Created with Sketch.</desc>
<g id="ic-ndop">
	<g id="IC-NDOP" transform="translate(-713.000000, -1013.000000)">
		<g id="partners" transform="translate(-35.000000, 856.000000)">
			<g id="logos" transform="translate(366.000000, 136.000000)">
				<g id="Colored-Logos_x2F_logo-color-voyage" transform="translate(382.000000, 0.000000)">
					<g id="logo-color-voyage">
						<g id="Group" transform="translate(0.000000, 21.000000)">
							<rect id="Box-BG" fill="#FA381C" width="117" height="34"/>
							<path id="VOYAGE" fill="#FFFFFF" d="M22.316,8.351h-2.844l-4.454,14.93h-0.377l-4.454-14.93H7.142l5.36,17.049
								c0.176,0.58,0.377,0.681,1.007,0.681h2.441c0.679,0,0.831-0.101,1.006-0.681L22.316,8.351z M30.956,8.351
								c-1.661,0-2.29,0.176-2.869,0.706c-0.981,0.883-1.585,2.169-1.585,8.121c0,5.952,0.604,7.238,1.585,8.121
								c0.579,0.529,1.208,0.707,2.869,0.707h5.033c1.661,0,2.29-0.178,2.869-0.707c0.981-0.883,1.585-2.169,1.585-8.121
								c0-5.952-0.604-7.238-1.585-8.121c-0.579-0.53-1.208-0.706-2.869-0.706H30.956z M29.371,17.178
								c0-5.095,0.352-5.876,0.629-6.129c0.201-0.176,0.403-0.277,1.258-0.277h4.429c0.855,0,1.057,0.101,1.258,0.277
								c0.277,0.252,0.629,1.034,0.629,6.129c0,5.094-0.353,5.876-0.629,6.128c-0.201,0.177-0.402,0.303-1.258,0.277h-4.429
								c-0.855,0-1.057-0.101-1.258-0.277C29.723,23.055,29.371,22.272,29.371,17.178z M59.098,8.351h-3.044L51.7,16.194h-0.202
								l-4.429-7.843h-3.095l6.19,10.668v6.986h2.818v-7.062L59.098,8.351z M74.51,26.081h-2.844L67.212,11.15h-0.378l-4.453,14.931
								h-3.045l5.359-17.049c0.176-0.58,0.377-0.681,1.007-0.681h2.44c0.68,0,0.831,0.101,1.007,0.681L74.51,26.081z M82.238,8.351
								c-1.662,0-2.291,0.176-2.869,0.706c-0.981,0.883-1.586,2.169-1.586,8.121c0,5.952,0.604,7.238,1.586,8.121
								c0.578,0.529,1.207,0.707,2.869,0.707h4.957c1.66,0,2.289-0.178,2.869-0.707c0.98-0.883,1.535-2.421,1.535-6.305V16.75
								h-6.946v2.42h4.103v0.883c0,2.119-0.328,3.002-0.604,3.254c-0.201,0.177-0.403,0.303-1.259,0.277h-4.354
								c-0.855,0-1.057-0.101-1.258-0.277c-0.277-0.252-0.629-1.034-0.629-6.128c0-5.095,0.352-5.876,0.629-6.129
								c0.201-0.176,0.402-0.277,1.258-0.277h4.354c0.855,0,1.058,0.101,1.259,0.277c0.276,0.252,0.503,0.757,0.554,2.85h2.742
								c-0.05-3.127-0.402-3.959-1.383-4.842c-0.58-0.53-1.209-0.706-2.869-0.706H82.238z M109.213,23.584h-9.209v-5.523h7.624
								V15.64h-7.624v-4.868h9.209V8.351H97.186v17.655h12.027V23.584z"/>
						</g>
						<rect id="bounds" fill="none" width="117" height="72"/>
					</g>
				</g>
			</g>
		</g>
	</g>
</g>
</svg>
