<?xml version="1.0" encoding="utf-8"?>
<!-- Generator: Adobe Illustrator 16.0.0, SVG Export Plug-In . SVG Version: 6.00 Build 0)  -->
<!DOCTYPE svg PUBLIC "-//W3C//DTD SVG 1.1//EN" "http://www.w3.org/Graphics/SVG/1.1/DTD/svg11.dtd">
<svg version="1.1" id="Layer_1" xmlns="http://www.w3.org/2000/svg" xmlns:xlink="http://www.w3.org/1999/xlink" x="0px" y="0px"
	 width="136px" height="72px" viewBox="0 -18.5 136 72" enable-background="new 0 -18.5 136 72" xml:space="preserve">
<title>Colored Logos/logo-color-polysync</title>
<desc>Created with Sketch.</desc>
<g id="ic-ndop">
	<g id="IC-NDOP" transform="translate(-476.000000, -1015.000000)">
		<g id="partners" transform="translate(-35.000000, 856.000000)">
			<g id="logos" transform="translate(366.000000, 136.000000)">
				<g id="Colored-Logos_x2F_logo-color-polysync" transform="translate(145.000000, 0.000000)">
					<g id="logo-color-polysync">
						<g id="Group" transform="translate(0.000000, 23.000000)">
							<path id="Fill-1" fill="#36485F" d="M16.176,4.5c0.109,0.084,0.21,0.183,0.328,0.251c4.346,2.527,8.693,5.052,13.039,7.577
								c0.111,0.064,0.218,0.134,0.369,0.228c-4.592,2.7-9.147,5.38-13.808,8.121V4.5H16.176"/>
							<path id="Fill-3" fill="#36485F" d="M0,13.954c1.588,0.92,3.175,1.843,4.764,2.761c2.877,1.664,5.756,3.324,8.634,4.987
								c0.114,0.065,0.225,0.136,0.391,0.237c-0.131,0.084-0.231,0.154-0.335,0.216c-4.392,2.567-8.785,5.136-13.177,7.703
								C0.183,29.913,0.092,29.971,0,30.026V13.954"/>
							<path id="Fill-5" fill="#36485F" d="M135.809,27.99c-0.039,0.025-0.086,0.044-0.115,0.077
								c-1.855,2.049-4.154,2.496-6.693,1.762c-2.729-0.788-4.191-2.776-4.666-5.524c-0.372-2.152-0.164-4.249,0.923-6.195
								c1.802-3.228,5.447-3.953,7.81-3.127c0.951,0.333,1.767,0.893,2.499,1.624c-0.613,0.698-1.208,1.374-1.808,2.056
								c-0.208-0.162-0.393-0.317-0.587-0.457c-1.488-1.067-3.415-0.785-4.548,0.668c-0.58,0.744-0.884,1.606-0.984,2.536
								c-0.123,1.141-0.082,2.272,0.287,3.374c0.958,2.855,4.01,3.106,5.703,1.486c0.104-0.1,0.211-0.195,0.338-0.314
								c0.617,0.658,1.229,1.311,1.842,1.963V27.99z"/>
							<path id="Fill-7" fill="#36485F" d="M121.361,29.867c-1.109,0-2.162,0.006-3.213-0.01c-0.098,0-0.236-0.111-0.284-0.207
								c-1.681-3.33-3.537-6.569-4.982-10.018c-0.062-0.15-0.136-0.295-0.276-0.43c0.477,3.539,0.354,7.085,0.35,10.646h-3.109
								V14.978c0.119-0.011,0.213-0.027,0.307-0.027c0.923-0.001,1.846,0.004,2.768-0.005c0.218-0.002,0.346,0.065,0.449,0.269
								c1.697,3.374,3.586,6.651,5.023,10.158c0.039,0.096,0.094,0.185,0.192,0.375c0.017-0.181,0.035-0.253,0.028-0.325
								c-0.118-1.423-0.299-2.844-0.348-4.27c-0.066-1.974-0.033-3.95-0.049-5.925c-0.001-0.205,0.071-0.281,0.271-0.279
								c0.874,0.006,1.748,0.005,2.623,0.001c0.184-0.001,0.266,0.072,0.25,0.259c-0.006,0.072,0,0.145,0,0.218v13.996V29.867z"/>
							<path id="Fill-9" fill="#36485F" d="M14.555,39.357c-4.597-2.67-9.16-5.319-13.771-7.998c4.599-2.705,9.157-5.385,13.771-8.1
								V39.357z"/>
							<g id="Group-13" transform="translate(15.876652, 18.514087)">
								<g id="Clip-12">
								</g>
								<defs>
									<filter id="Adobe_OpacityMaskFilter" filterUnits="userSpaceOnUse" x="0.183" y="4.716" width="13.772" height="16.146">
										<feColorMatrix  type="matrix" values="1 0 0 0 0  0 1 0 0 0  0 0 1 0 0  0 0 0 1 0"/>
									</filter>
								</defs>
								<mask maskUnits="userSpaceOnUse" x="0.183" y="4.716" width="13.772" height="16.146" id="mask-2">
									<g filter="url(#Adobe_OpacityMaskFilter)">
										<polygon id="path-1" fill="#FFFFFF" points="0.183,20.863 13.956,20.863 13.956,4.716 0.183,4.716 										"/>
									</g>
								</mask>
								<path id="Fill-11" mask="url(#mask-2)" fill="#36485F" d="M13.956,12.752c-4.573,2.717-9.077,5.392-13.655,8.111
									c-0.04-5.402-0.078-10.73-0.117-16.146C4.791,7.404,9.335,10.056,13.956,12.752"/>
							</g>
							<path id="Fill-14" fill="#36485F" d="M16.88,21.973c4.629-2.706,9.191-5.372,13.791-8.061v16.003
								C26.074,27.268,21.51,24.639,16.88,21.973"/>
							<path id="Fill-16" fill="#36485F" d="M84.769,27.986c0.626-0.76,1.236-1.504,1.865-2.268c0.11,0.08,0.204,0.146,0.297,0.216
								c0.897,0.675,1.86,1.22,2.997,1.288c0.514,0.031,1.051-0.043,1.551-0.176c0.525-0.139,0.826-0.556,0.875-1.123
								c0.049-0.541-0.172-0.969-0.635-1.206c-0.725-0.372-1.475-0.692-2.217-1.027c-0.545-0.247-1.111-0.454-1.643-0.729
								c-1.625-0.842-2.607-2.127-2.5-4.051c0.1-1.823,1.123-3.015,2.721-3.734c2.33-1.049,5.559-0.393,7.232,1.467
								c-0.55,0.691-1.104,1.388-1.652,2.076c-0.375-0.232-0.723-0.471-1.09-0.67c-0.877-0.476-1.812-0.617-2.783-0.391
								c-0.718,0.167-1.096,0.649-1.088,1.292c0.006,0.469,0.264,0.784,0.637,0.982c0.549,0.292,1.119,0.547,1.689,0.795
								c0.691,0.301,1.403,0.558,2.089,0.873c1.163,0.533,2.117,1.293,2.481,2.605c0.582,2.099-0.283,4.15-2.194,5.171
								c-1.798,0.96-3.677,0.953-5.583,0.395C86.631,29.424,85.535,28.77,84.769,27.986"/>
							<path id="Fill-18" fill="#36485F" d="M102.188,21.664c0.209-0.549,0.418-1.1,0.629-1.648
								c0.605-1.578,1.219-3.154,1.816-4.736c0.089-0.236,0.201-0.34,0.464-0.336c1.017,0.016,2.033,0.006,3.118,0.006
								c-0.082,0.189-0.139,0.329-0.201,0.464c-1.359,2.937-2.723,5.871-4.074,8.812c-0.097,0.211-0.15,0.461-0.152,0.693
								c-0.014,1.49-0.008,2.98-0.008,4.471v0.453h-3.312v-0.416c0-1.516,0.006-3.03-0.006-4.545
								c-0.002-0.209-0.05-0.436-0.137-0.625c-1.353-2.939-2.715-5.875-4.074-8.812c-0.064-0.14-0.125-0.282-0.209-0.472
								c0.166-0.01,0.291-0.024,0.416-0.024c0.91-0.002,1.821,0.01,2.731-0.008c0.283-0.005,0.422,0.082,0.522,0.357
								c0.735,2.008,1.486,4.009,2.234,6.013c0.045,0.121,0.098,0.239,0.147,0.359C102.124,21.669,102.156,21.666,102.188,21.664"/>
							<path id="Fill-20" fill="#E34E33" d="M3.794,12.63c3.142,1.835,6.218,3.633,9.3,5.434V7.107
								C9.958,8.97,6.912,10.779,3.794,12.63 M0.887,12.643c4.56-2.708,9.056-5.379,13.635-8.099
								c0.04,5.385,0.079,10.706,0.119,16.122C10.051,17.988,5.507,15.338,0.887,12.643"/>
							<path id="Fill-22" fill="#36485F" d="M62.485,22.258c0-0.303,0.02-0.607-0.003-0.908c-0.095-1.245-0.376-2.439-1.011-3.525
								c-1.068-1.826-2.932-2.695-4.985-2.274c-1.708,0.351-2.816,1.466-3.428,3.06c-0.939,2.448-0.917,4.928,0.003,7.379
								c0.446,1.188,1.197,2.155,2.351,2.733c1.993,0.998,4.778,0.568,6.201-2.211C62.294,25.178,62.521,23.742,62.485,22.258
								 M51.335,22.072c-0.007-1.305,0.22-2.742,0.866-4.085c1.068-2.223,2.791-3.471,5.277-3.464
								c2.502,0.007,4.225,1.273,5.278,3.52c0.726,1.547,0.911,3.197,0.829,4.888c-0.067,1.38-0.346,2.713-0.991,3.943
								c-1.021,1.95-2.586,3.134-4.801,3.253c-2.268,0.123-4.009-0.862-5.201-2.804C51.642,25.775,51.329,24.05,51.335,22.072"/>
							<path id="Fill-24" fill="#36485F" d="M40.629,19.082c0,1.029,0,2.059,0,3.087c0,0.173-0.019,0.351,0.242,0.343
								c1.374-0.041,2.757,0.008,4.12-0.137c1.824-0.191,2.754-1.129,2.934-2.869c0.218-2.109-0.585-3.466-2.719-3.708
								c-1.433-0.163-2.89-0.104-4.335-0.147c-0.261-0.008-0.241,0.171-0.24,0.344C40.63,17.024,40.629,18.053,40.629,19.082
								 M40.629,29.855h-0.977V14.822c0.04-0.014,0.073-0.037,0.106-0.036c1.878,0.04,3.758,0.039,5.632,0.146
								c0.61,0.035,1.238,0.286,1.799,0.56c1.051,0.512,1.579,1.448,1.744,2.591c0.122,0.848,0.097,1.693-0.17,2.516
								c-0.498,1.529-1.666,2.277-3.128,2.559c-0.921,0.177-1.877,0.175-2.82,0.223c-0.609,0.031-1.222,0.021-1.832-0.001
								c-0.297-0.011-0.36,0.101-0.358,0.376c0.009,1.877,0.005,3.756,0.004,5.633V29.855"/>
							<path id="Fill-26" fill="#36485F" d="M83.864,14.776c-0.554,1.112-1.067,2.148-1.583,3.183
								c-0.91,1.826-1.827,3.648-2.727,5.478c-0.106,0.218-0.166,0.482-0.167,0.725c-0.014,1.744-0.008,3.489-0.008,5.234v0.449
								h-1.006v-0.387c0-1.77,0.007-3.537-0.008-5.307c-0.001-0.242-0.062-0.506-0.168-0.723c-1.364-2.771-2.742-5.537-4.116-8.305
								c-0.047-0.095-0.084-0.194-0.149-0.347c0.334,0,0.63-0.025,0.918,0.013c0.103,0.013,0.22,0.161,0.274,0.275
								c0.998,2.078,1.984,4.162,2.98,6.24c0.236,0.496,0.496,0.982,0.779,1.539c0.117-0.203,0.195-0.322,0.256-0.449
								c1.159-2.389,2.324-4.775,3.465-7.173c0.162-0.343,0.345-0.512,0.723-0.451C83.477,14.796,83.633,14.776,83.864,14.776"/>
							<path id="Fill-28" fill="#36485F" d="M68.062,28.967h0.465h5.928c0.503,0,0.504,0,0.5,0.514
								c-0.002,0.117-0.012,0.236-0.018,0.37h-7.875c-0.007-0.162-0.021-0.317-0.021-0.472c-0.001-4.688-0.001-9.376-0.001-14.064
								c0-0.534,0-0.534,0.515-0.534h0.506V28.967z"/>
						</g>
						<rect id="bounds" y="4.5" fill="none" width="136" height="72"/>
					</g>
				</g>
			</g>
		</g>
	</g>
</g>
</svg>
