<?xml version="1.0" encoding="utf-8"?>
<!-- Generator: Adobe Illustrator 16.0.0, SVG Export Plug-In . SVG Version: 6.00 Build 0)  -->
<!DOCTYPE svg PUBLIC "-//W3C//DTD SVG 1.1//EN" "http://www.w3.org/Graphics/SVG/1.1/DTD/svg11.dtd">
<svg version="1.1" id="Layer_1" xmlns="http://www.w3.org/2000/svg" xmlns:xlink="http://www.w3.org/1999/xlink" x="0px" y="0px"
	 width="43px" height="72px" viewBox="0 0 43 72" enable-background="new 0 0 43 72" xml:space="preserve">
<g>
	<path fill="#FF00BF" d="M0.044,26.49h6.52v17.195c0,2.727,1.257,4.346,2.275,5.027c-1.064,0.916-4.29,1.727-6.717-0.234
		c-1.43-1.152-2.08-3.069-2.08-4.859V26.49H0.044z M40.747,38.977h1.993v-6.329h-2.188C39.707,28.834,36.262,26,32.146,26
		c-4.744,0-8.6,3.793-8.6,8.46v14.765c1.344,0.191,2.969-0.021,4.333-1.15c1.431-1.15,2.08-3.068,2.08-4.858v-0.554h3.25v-6.328
		h-3.25v-1.918c0-1.193,0.974-2.152,2.187-2.152s2.188,0.96,2.188,2.152v6.35c0,4.666,3.856,8.459,8.601,8.459v-6.307
		c-1.213,0-2.188-0.96-2.188-2.13V38.977z M16.097,32.626v9.31c0,0.534-0.456,0.961-0.998,0.961s-0.998-0.427-0.998-0.959v-9.312
		H7.67v10.931c0,1.959,0.67,4.453,3.768,5.264c3.098,0.81,4.874-0.875,4.874-0.875c-0.173,1.109-1.213,1.919-2.924,2.089
		c-1.3,0.128-2.946-0.298-3.77-0.64v5.795c2.102,0.619,4.312,0.811,6.5,0.385c3.942-0.746,6.433-3.985,6.433-8.311v-14.68h-6.453
		L16.097,32.626L16.097,32.626z"/>
	<rect fill="none" width="42.936" height="72"/>
</g>
</svg>
