<?xml version="1.0" encoding="utf-8"?>
<!-- Generator: Adobe Illustrator 16.0.0, SVG Export Plug-In . SVG Version: 6.00 Build 0)  -->
<!DOCTYPE svg PUBLIC "-//W3C//DTD SVG 1.1//EN" "http://www.w3.org/Graphics/SVG/1.1/DTD/svg11.dtd">
<svg version="1.1" id="Layer_1" xmlns="http://www.w3.org/2000/svg" xmlns:xlink="http://www.w3.org/1999/xlink" x="0px" y="0px"
	 width="178px" height="72px" viewBox="0 -19.5 178 72" enable-background="new 0 -19.5 178 72" xml:space="preserve">
<title>Colored Logos/logo-color-roborace</title>
<desc>Created with Sketch.</desc>
<g id="ic-ndop">
	<g id="IC-NDOP" transform="translate(-932.000000, -1016.000000)">
		<g id="partners" transform="translate(-35.000000, 856.000000)">
			<g id="logos" transform="translate(366.000000, 136.000000)">
				<g id="Colored-Logos_x2F_logo-color-roborace" transform="translate(601.000000, 0.000000)">
					<g>
						<g id="text" transform="translate(41.000000, 32.000000)">
							<path id="Fill-22" d="M23.225,6.254L23.225,6.254c-1.827,0-3.481,0.688-4.678,1.798c-1.197,1.112-1.938,2.646-1.938,4.342
								c0,1.695,0.741,3.23,1.938,4.342c1.197,1.11,2.851,1.798,4.678,1.798h0l0,0c1.827,0,3.48-0.688,4.678-1.798
								c1.197-1.111,1.938-2.646,1.938-4.342c0-1.696-0.741-3.23-1.938-4.342C26.705,6.941,25.051,6.254,23.225,6.254L23.225,6.254z
								 M23.224,20.284c-2.347,0-4.472-0.884-6.011-2.312c-1.538-1.428-2.49-3.4-2.49-5.578c0-2.18,0.952-4.152,2.49-5.58
								c1.539-1.428,3.664-2.311,6.011-2.311h0l0,0c2.347,0,4.472,0.883,6.011,2.311c1.538,1.428,2.49,3.4,2.49,5.58
								c0,2.178-0.952,4.15-2.49,5.578C27.697,19.4,25.572,20.284,23.224,20.284L23.224,20.284L23.224,20.284z"/>
							<path id="Fill-23" d="M60.273,4.504L60.273,4.504c2.348,0,4.473,0.883,6.012,2.311c1.538,1.428,2.49,3.4,2.49,5.58
								c0,2.178-0.952,4.15-2.49,5.578c-1.539,1.428-3.664,2.312-6.012,2.312l0,0l0,0c-2.348,0-4.473-0.884-6.01-2.312
								c-1.539-1.428-2.49-3.4-2.49-5.578c0-2.18,0.951-4.152,2.49-5.58C55.801,5.387,57.926,4.504,60.273,4.504L60.273,4.504z
								 M60.273,18.534c1.827,0,3.481-0.688,4.678-1.798c1.197-1.111,1.938-2.646,1.938-4.342c0-1.696-0.74-3.23-1.938-4.342
								c-1.196-1.111-2.851-1.798-4.678-1.798l0,0l0,0c-1.826,0-3.48,0.688-4.678,1.798c-1.197,1.112-1.938,2.646-1.938,4.342
								c0,1.695,0.74,3.23,1.938,4.342C56.793,17.847,58.447,18.534,60.273,18.534L60.273,18.534L60.273,18.534z"/>
							<path id="Fill-24" d="M120.643,9.32c-0.591-0.949-1.432-1.716-2.42-2.246h-0.004c-0.986-0.528-2.123-0.82-3.309-0.82l0,0l0,0
								c-1.826,0-3.48,0.688-4.678,1.798c-1.197,1.112-1.938,2.646-1.938,4.342c0,1.695,0.74,3.23,1.938,4.342
								c1.197,1.11,2.852,1.798,4.678,1.798l0,0l0,0c1.186,0,2.322-0.292,3.309-0.82h0.004c0.986-0.528,1.826-1.297,2.42-2.25
								l1.627,0.875c-0.756,1.217-1.838,2.202-3.109,2.884l0.001,0.002c-1.274,0.683-2.735,1.06-4.251,1.06l0,0l0,0
								c-2.348,0-4.473-0.884-6.011-2.312s-2.489-3.4-2.489-5.578c0-2.18,0.951-4.152,2.489-5.58s3.663-2.311,6.011-2.311l0,0l0,0
								c1.516,0,2.977,0.377,4.251,1.06l-0.001,0.001c1.27,0.681,2.351,1.667,3.109,2.888L120.643,9.32z"/>
							<path id="Fill-25" d="M44.669,20.301c0.915-0.182,1.732-0.607,2.37-1.199c0.864-0.802,1.399-1.91,1.399-3.135
								c0-1.224-0.535-2.332-1.399-3.134c-0.292-0.271-0.621-0.507-0.98-0.7c0.94-0.839,1.466-1.985,1.466-3.196
								c0-1.224-0.535-2.332-1.399-3.134c-0.831-0.771-1.966-1.259-3.224-1.296c-2.206-0.001-4.412,0-6.618-0.005v8.03V20.4h1.885
								V6.253l4.58,0.001c0.798,0,1.521,0.3,2.044,0.786c0.523,0.486,0.847,1.156,0.847,1.897c0,1.685-1.271,2.599-3.004,2.599
								h-2.61l-1.849,1.75h5.486c0.798,0,1.521,0.3,2.044,0.785s0.847,1.156,0.847,1.896c0,0.741-0.324,1.412-0.847,1.897
								s-1.246,0.786-2.044,0.786h-3.589l-1.886,1.75h5.475C44.008,20.4,44.329,20.369,44.669,20.301"/>
							<path id="Fill-26" d="M126.598,4.5c2.23,0.014,7.795,0.019,10.287,0.021l-1.87,1.732h-6.531v4.272h6.331l-1.885,1.75h-4.446
								v6.375h8.37l-1.889,1.75h-8.367V4.5z"/>
							<polygon id="Fill-27" points="94.561,4.504 98.129,4.503 103.921,20.4 101.938,20.4 100.361,16.073 92.379,16.073 
								94.264,14.323 99.723,14.323 96.783,6.253 95.906,6.253 90.752,20.4 88.768,20.4 							"/>
							<path id="Fill-28" d="M0,4.501l0.387,0.002h0.555h0.943l4.731,0.003c1.258,0.036,2.395,0.525,3.226,1.296
								c0.864,0.802,1.398,1.911,1.398,3.134s-0.534,2.333-1.398,3.135c-0.527,0.489-1.176,0.864-1.901,1.083l4.312,7.246h-2.174
								l-4.195-7.049l-3.958,0.002l1.639-1.734h2.913c0.793-0.003,1.511-0.303,2.031-0.785c0.523-0.485,0.847-1.156,0.847-1.897
								c0-0.741-0.323-1.411-0.847-1.897C7.986,6.554,7.263,6.254,6.465,6.254l-4.58-0.001V20.4H0v-2.572V4.501z"/>
							<path id="Fill-29" d="M73.425,4.501l0.388,0.002h0.555h0.943l4.73,0.003c1.26,0.036,2.395,0.525,3.227,1.296
								c0.863,0.802,1.398,1.911,1.398,3.134s-0.535,2.333-1.398,3.135c-0.527,0.489-1.177,0.864-1.902,1.083l4.312,7.246h-2.174
								l-4.195-7.049l-3.958,0.002l1.64-1.734h2.912c0.793-0.003,1.512-0.303,2.031-0.785c0.523-0.485,0.847-1.156,0.847-1.897
								c0-0.741-0.323-1.411-0.847-1.897c-0.522-0.485-1.245-0.786-2.043-0.786l-4.58-0.001V20.4h-1.886v-2.572V4.501z"/>
						</g>
						<g id="pic" transform="translate(0.000000, 24.000000)">
							<path id="Shape" d="M14.631,4.742l7.167,4.074l7.167,4.074v8.148v8.148l-7.167,4.074l-7.167,4.073l-7.167-4.073l-7.167-4.074
								v-8.148V12.89l7.167-4.074L14.631,4.742z M18.473,22.465h5.669c0.8,0,1.449-0.639,1.449-1.427
								c0-0.787-0.648-1.426-1.449-1.426h-5.669c-0.8,0-1.448,0.639-1.448,1.426C17.024,21.826,17.673,22.465,18.473,22.465z
								 M5.121,22.465h5.67c0.8,0,1.448-0.639,1.448-1.427c0-0.787-0.648-1.426-1.448-1.426h-5.67c-0.8,0-1.448,0.639-1.448,1.426
								C3.672,21.826,4.321,22.465,5.121,22.465z"/>
						</g>
						<rect id="bounds" y="4.5" fill="#ECC81A" fill-opacity="0" width="178" height="72"/>
					</g>
				</g>
			</g>
		</g>
	</g>
</g>
</svg>
